<?xml version="1.0" encoding="utf-8"?>
<!-- Generator: Adobe Illustrator 24.1.2, SVG Export Plug-In . SVG Version: 6.00 Build 0)  -->
<svg version="1.1" id="Layer_1" xmlns="http://www.w3.org/2000/svg" xmlns:xlink="http://www.w3.org/1999/xlink" x="0px" y="0px"
	 viewBox="0 0 413.7 336.7" style="enable-background:new 0 0 413.7 336.7;" xml:space="preserve">
<style type="text/css">
	.st0{fill:#E6F3FF;}
	.st1{fill:#1894FF;}
	.st2{opacity:0.58;fill:#00DE9A;enable-background:new    ;}
	.st3{opacity:0.73;fill:#00DE9A;enable-background:new    ;}
	.st4{fill:#00DE9A;}
	.st5{fill:#2361B5;}
	.st6{fill:#C2E3FF;}
	.st7{opacity:0.16;fill:#1894FF;enable-background:new    ;}
	.st8{opacity:8.000000e-02;fill:#2361B5;enable-background:new    ;}
	.st9{fill:#F4A28C;}
	.st10{opacity:0.31;fill:#CE8172;enable-background:new    ;}
	.st11{opacity:8.000000e-02;enable-background:new    ;}
</style>
<g id="doctor_two_color" transform="translate(-20.891 -24.415)">
	<rect id="Rectangle_1933" x="230.6" y="24.4" class="st0" width="103.6" height="129.2"/>
	<rect id="Rectangle_1937" x="126.8" y="199.3" class="st0" width="307.7" height="153.4"/>
	<rect id="Rectangle_1938" x="126.8" y="199.3" class="st1" width="307.7" height="20.2"/>
	<path id="Path_14183" class="st2" d="M371.5,180.2c0,0-15.2-4.1-18.5-18.2c0,0,23.5-4.8,24.3,19.5L371.5,180.2z"/>
	<path id="Path_14184" class="st3" d="M373.3,178.6c0,0-10.7-16.7-1.4-32.4c0,0,17.9,11.3,10.1,32.4H373.3z"/>
	<path id="Path_14185" class="st4" d="M376,178.6c0,0,5.6-17.7,22.4-21.1c0,0,3.2,11.5-10.9,21.1H376z"/>
	<path id="Path_14186" class="st5" d="M365,178.3l3.2,21h19.4l2.8-21H365z"/>
	<circle id="Ellipse_40" class="st6" cx="258" cy="47.6" r="6.5"/>
	<path id="Path_14193" class="st6" d="M270.7,62.3c-0.8-4.8-12.2-4.4-12.8-4.4c-0.6,0-11.9-0.4-12.8,4.4c-0.7,4-3.4,19.9-4.3,25.8
		c-0.3,1.3,0.6,2.5,1.8,2.8l0,0c1.3,0.3,2.6-0.5,2.9-1.8c0,0,0,0,0,0l4.7-21l0.9,23.3l-0.8,34.4c0,1.4,1,2.6,2.4,2.8l0,0
		c1.5,0.2,2.9-0.9,3.1-2.4c0-0.1,0-0.1,0-0.2l1.5-23.7c0-0.3,0.3-0.6,0.6-0.6c0.3,0,0.6,0.3,0.6,0.6l1.5,23.7c0.1,1.5,1.4,2.7,3,2.6
		c0.1,0,0.1,0,0.2,0l0,0c1.4-0.2,2.5-1.4,2.4-2.8l-0.8-34.4l0.9-23.4l4.7,21c0.3,1.3,1.6,2.1,2.9,1.8c0,0,0,0,0,0l0,0
		c1.3-0.3,2.1-1.5,1.8-2.8C274.1,82.3,271.4,66.3,270.7,62.3z"/>
	<path id="Rectangle_1939" class="st4" d="M289.9,39.1h27.2c2.8,0,5,2.2,5,5v20.1c0,2.8-2.2,5-5,5h-27.2c-2.8,0-5-2.2-5-5V44.1
		C284.9,41.3,287.1,39.1,289.9,39.1z"/>
	<rect id="Rectangle_1940" x="284.9" y="80" class="st7" width="37.2" height="6.1"/>
	<rect id="Rectangle_1941" x="284.9" y="91.9" class="st7" width="37.2" height="6.1"/>
	<rect id="Rectangle_1942" x="284.9" y="105.3" class="st7" width="37.2" height="6.1"/>
	<circle id="Ellipse_41" class="st1" cx="318.6" cy="136.3" r="8"/>
	<path id="Path_14178" class="st8" d="M280.1,202.3c0,0,8.3,41.7-23.7,56.6c-32,14.8-34.4,54.1-10.3,93.8H137l6.7-117.5l64-36
		l55.7,0.7L280.1,202.3z"/>
	<g id="doctor_two_color-2" transform="translate(-28.349 26.674)">
		<path id="Path_14176" class="st1" d="M109.1,76.5c0,0-54.7,7.7-58.7,69.2l37.8,9L109.1,76.5z"/>
		<path id="Path_14177" class="st0" d="M109.8,76.3c0,0-55.3,6.9-60.3,69.4l38,9.8L109.8,76.3z"/>
		<path id="Path_14179" class="st9" d="M53.6,146.4c0,0-16.8,62.4,21.3,62.5l12.5-32.1L81.2,153L53.6,146.4z"/>
		<path id="Path_14180" class="st10" d="M53.6,146.4c0,0-16.8,62.4,21.3,62.5l12.5-32.1L81.2,153L53.6,146.4z"/>
		<path id="Path_14181" class="st5" d="M123,321.5c0,0-2,5.6-7,6s-6.4,5.4-1.8,6.7s16.2-4.6,16.2-4.6l-0.3-7.3L123,321.5z"/>
		<path id="Path_14182" class="st5" d="M197,320.7c0,0,2,5.6,7,6s6.4,5.4,1.8,6.6s-16.2-4.6-16.2-4.6l0.4-7.3L197,320.7z"/>
		<path id="Path_14187" class="st9" d="M159.8,43.3l-3.2-3.1l0,0c-0.5-3.3-1.2-5.9-1.2-5.9c-1.2-5.7-10.1-8.4-14.7-3.7
			c-2.7,2.4-3.6,6.2-2.2,9.6l4.2,7.7c1.9,4.8,6.2,6.1,9.4,6.4c2.6,0.2,4.9-1.7,5.1-4.3c0,0,0,0,0,0c0.1-1.1,0.1-2.2,0-3.4l2-0.7
			c0.8-0.2,1.3-1.1,1-1.9C160.1,43.7,160,43.5,159.8,43.3L159.8,43.3z"/>
		<path id="Path_14188" class="st9" d="M139,43.6l-2.6,30.9l17.1,0.2l-4.9-22L139,43.6z"/>
		<path id="Path_14189" d="M133.1,34.9c3.2,1.6,3.6,5.6,4.5,9l1,4.3c3,0.6,6.1-1,7.2-3.9c0.7-1.6,0.9-3.4,0.4-5.1
			c-0.4-1.4,0.4-3,1.9-3.4c0.2-0.1,0.4-0.1,0.5-0.1l1.4-0.1c1.8-0.2,3.6-0.9,5.1-1.9l0,0l-0.5-6.7"/>
		<path id="Path_14190" class="st9" d="M146.8,44c0,0-0.7-3.6-3.3-2.8s-1.7,5.9,2,5.8L146.8,44z"/>
		<path id="Path_14191" class="st10" d="M148.9,53.4c-2.1-0.4-4-1.3-5.5-2.7c0,0-1.2,6.7,6.9,9L148.9,53.4z"/>
		<path id="Path_14192" class="st0" d="M111.6,75.8c0,0,44.4-13.3,89.6,5.5S177.8,221,177.8,221h-69.3
			C108.5,221,44.3,89.5,111.6,75.8z"/>
		<path id="Path_14194" class="st1" d="M152.7,43.6h8L157.3,55l-13.8-7.7v-1l4.3,2.3c0.8,0.4,1.8,0.1,2.2-0.7
			c0.1-0.3,0.2-0.5,0.2-0.8l0,0c-0.1-1.6-1-3-2.4-3.7l-1.3-0.6l-1.1-1.4l2.7,1.3C149.5,43.3,151.1,43.6,152.7,43.6z"/>
		<path id="Path_14195" class="st8" d="M119.9,106h16.4l7.8,47.9h-21.3c0,0-8.9,39.5,21.8,67.1h-36.2c0,0-18.9-46.1-22.5-62.5
			L84.3,123L119.9,106z"/>
		<path id="Path_14196" class="st9" d="M136.7,71.7l8.3,15.4l7.8-15.8C147.4,70.3,141.9,70.5,136.7,71.7L136.7,71.7z"/>
		<path id="Path_14197" class="st1" d="M76.3,93.9h40.6l6,47h-40L76.3,93.9z"/>
		<path id="Path_14198" class="st11" d="M89.2,120.7c4.7,0.9,8.5,4.4,9.7,9c2.5,8.2,23,3.5,23,3.5l1,7.8l-36.8-0.1L89.2,120.7z"/>
		<path id="Path_14199" class="st5" d="M87.8,90.3l1.8,7.1h14.9l-1.4-7.1H87.8z"/>
		<path id="Path_14200" class="st9" d="M79.8,135.6c0,0-6.2-11.9,2.9-16.2s11,11.8,3.4,21.5L79.8,135.6z"/>
		<path id="Path_14201" class="st5" d="M137.6,44c0,0,5.6-7.1,18-8.8c0,0,4.8-7-1.4-11.9s-21,0.1-24.4,6.8
			C127.9,33.9,126.6,44,137.6,44z"/>
		<path id="Path_14202" class="st9" d="M79.9,133.2c0,0-33.2,68-10.1,75.5s17.8-69.1,17.8-69.1L79.9,133.2z"/>
		<path id="Path_14203" class="st9" d="M179.1,95.8c6.2-12.8,23.1-16,34-6.7c15.3,13,43.4,49.2,48.6,83.8
			c8.1,54.8-69.8,59.9-69.8,59.9l-2.6-12c0,0,51.1-12.8,36.5-48.8C214.1,143.3,168.6,117.6,179.1,95.8z"/>
		<path id="Path_14205" class="st1" d="M178.9,91.6c0,0,13.5-16.5,30.6-6.6s39.5,46,39.5,46l-37.8,27.3
			C211.2,158.3,156.2,111.3,178.9,91.6z"/>
		<path id="Path_14206" class="st0" d="M177.8,90.7c0,0,13.9-17,31.6-6.9s40.8,47.5,40.8,47.5l-39.1,28.2
			C211.2,159.6,154.4,111,177.8,90.7z"/>
		<path id="Path_14208" class="st0" d="M177.7,221h-69.2L120,323.1h13.1l11.5-82.7l43.1,82.7h12.8L177.7,221z"/>
		<path id="Path_14209" class="st9" d="M189.4,220.9c0,0-22.7,5.1-16,14s18.5-2.1,18.5-2.1L189.4,220.9z"/>
		<path id="Path_14210" class="st1" d="M127.9,94c-0.1-0.8-2.6-18.6,9-23.9v1.6c-10.6,4.9-7.7,21.8-7.7,22.1L127.9,94z"/>
		<path id="Path_14211" class="st1" d="M159.6,109.5l-1.3-0.3c6.7-32.6-5.7-37.9-5.8-38v-1.4C153.1,70.1,166.5,75.8,159.6,109.5z"/>
		<path id="Path_14212" class="st1" d="M167,128.1l-2.5-0.6c0-0.1,2.1-9-1.1-13.4c-1.1-1.4-2.7-2.3-4.5-2.3
			c-1.8-0.2-3.6,0.4-4.9,1.6c-4,3.9-3.7,13.1-3.7,13.2l-2.6,0.1c0-0.4-0.4-10.4,4.4-15.2c1.8-1.8,4.4-2.6,6.9-2.3
			c2.5,0.1,4.9,1.3,6.4,3.4C169.4,117.9,167.1,127.7,167,128.1z"/>
		<circle id="Ellipse_42" class="st5" cx="159.3" cy="110.3" r="2.4"/>
		<circle id="Ellipse_43" class="st1" cx="128.7" cy="94.7" r="4.6"/>
		<circle id="Ellipse_44" class="st5" cx="128.7" cy="94.7" r="2.6"/>
		<path id="Path_14213" class="st1" d="M153,139.5c-5.5-2.7-4.6-15.2-4.6-15.7l1.3,0.1c0,0.1-0.8,12.1,3.9,14.5L153,139.5z"/>
		<circle id="Ellipse_45" class="st5" cx="153.7" cy="138.6" r="2.2"/>
		<path id="Path_14214" class="st1" d="M160,139.3l-0.4-1.2c5-1.7,5.9-13.6,5.9-13.8l1.3,0.1C166.8,124.9,165.8,137.4,160,139.3z"/>
		<circle id="Ellipse_46" class="st5" cx="159.4" cy="138.3" r="2.2"/>
	</g>
</g>
</svg>
