<?xml version="1.0" encoding="utf-8"?>
<!-- Generator: Adobe Illustrator 24.1.2, SVG Export Plug-In . SVG Version: 6.00 Build 0)  -->
<svg version="1.1" id="Group_123" xmlns="http://www.w3.org/2000/svg" xmlns:xlink="http://www.w3.org/1999/xlink" x="0px" y="0px"
	 viewBox="0 0 35.2 45.1" style="enable-background:new 0 0 35.2 45.1;" xml:space="preserve">
<style type="text/css">
	.st0{fill:url(#Path_690_1_);}
	.st1{fill:url(#Path_691_1_);}
	.st2{fill:url(#Path_692_1_);}
	.st3{fill:#1894FF;}
	.st4{fill:#FFFFFF;}
	.st5{fill:#00DE9A;}
</style>
<linearGradient id="Path_690_1_" gradientUnits="userSpaceOnUse" x1="-455.3447" y1="495.5197" x2="-453.6727" y2="497.2317" gradientTransform="matrix(18.238 0 0 -17.806 8308.4609 8854.3438)">
	<stop  offset="0" style="stop-color:#43DCC7"/>
	<stop  offset="0.5" style="stop-color:#85FFE0"/>
	<stop  offset="1" style="stop-color:#FFFFFF"/>
</linearGradient>
<path id="Path_690" class="st0" d="M35.2,17.8C35.2,17.8,35.2,17.8,35.2,17.8C35.1,8.3,27,0,17.6,0c-0.2,0-0.4,0-0.6,0
	C17.7,9.7,25.5,17.3,35.2,17.8z"/>
<linearGradient id="Path_691_1_" gradientUnits="userSpaceOnUse" x1="-455.3309" y1="490.83" x2="-453.291" y2="493.427" gradientTransform="matrix(18.782 0 0 -14.7452 8558.334 7280.8315)">
	<stop  offset="0" style="stop-color:#00B8AE"/>
	<stop  offset="0.5" style="stop-color:#85FFE0"/>
	<stop  offset="1" style="stop-color:#C2FFF0"/>
</linearGradient>
<path id="Path_691" class="st1" d="M5.2,30.3c3.3,4.4,9.9,13.4,9.9,13.4c1,1.4,2.9,1.7,4.3,0.8c0.3-0.2,0.5-0.5,0.8-0.8
	c0,0,1.7-2.4,3.8-5.3C17.8,35.9,11.5,33.1,5.2,30.3z"/>
<linearGradient id="Path_692_1_" gradientUnits="userSpaceOnUse" x1="-467.2077" y1="510.8067" x2="-465.9457" y2="511.9617" gradientTransform="matrix(35.2162 0 0 -38.494 16457.9941 19694.8691)">
	<stop  offset="0" style="stop-color:#43DCC7"/>
	<stop  offset="0.5" style="stop-color:#85FFE0"/>
	<stop  offset="0.997" style="stop-color:#C2FFF0"/>
</linearGradient>
<path id="Path_692" class="st2" d="M35.2,17.8C25.5,17.3,17.7,9.7,17,0C7.8,0.4,0.1,8.6,0,17.7c0,3.7,1.2,7.3,3.4,10.3
	c0,0,0.7,0.9,1.7,2.3C10.3,35.1,17,38,24,38.5c3.4-4.6,7.8-10.5,7.8-10.5C34,25.1,35.2,21.5,35.2,17.8z"/>
<path id="Path_693" class="st3" d="M35.2,17.7C35.1,8.3,27,0,17.6,0C8.2,0,0.1,8.4,0,17.7c0,3.7,1.2,7.3,3.5,10.3
	c0-0.1,11.7,15.8,11.6,15.8c1,1.4,2.9,1.7,4.3,0.8c0.3-0.2,0.5-0.5,0.8-0.8C20.1,43.8,31.8,28,31.8,28C34,25.1,35.2,21.5,35.2,17.7
	L35.2,17.7z"/>
<path id="Path_694" class="st4" d="M30.4,17.7c0,7.1-5.7,12.8-12.8,12.8c-7.1,0-12.8-5.7-12.8-12.8c0-7.1,5.7-12.8,12.8-12.8
	C24.7,4.9,30.4,10.6,30.4,17.7C30.4,17.7,30.4,17.7,30.4,17.7z"/>
<path id="Path_695" class="st5" d="M20,14.6c0-1.2,0-2.4,0-3.6c0-0.3-0.3-0.6-0.6-0.6c-1.2,0-2.4,0-3.6,0c-0.3,0-0.6,0.3-0.6,0.6
	c0,1.2,0,2.4,0,3.6c0,0.3-0.3,0.6-0.6,0.6c-1.2,0-2.4,0-3.6,0c-0.3,0-0.6,0.3-0.6,0.6c0,1.2,0,2.4,0,3.6c0,0.3,0.3,0.6,0.6,0.6l0,0
	l3.6,0c0.3,0,0.6,0.3,0.6,0.6c0,0,0,0,0,0c0,1.2,0,2.4,0,3.6c0,0.3,0.3,0.6,0.6,0.6c1.2,0,2.4,0,3.6,0c0.3,0,0.6-0.3,0.6-0.6
	c0-1.2,0-2.4,0-3.6c0-0.3,0.3-0.6,0.6-0.6l0,0l3.6,0c0.3,0,0.6-0.3,0.6-0.6c0,0,0,0,0,0c0-1.2,0-2.4,0-3.6c0-0.3-0.3-0.6-0.6-0.6
	c-1.2,0-2.4,0-3.6,0C20.3,15.2,20,14.9,20,14.6z"/>
</svg>
